<svg xmlns="http://www.w3.org/2000/svg" xmlns:xlink="http://www.w3.org/1999/xlink" width="122" zoomAndPan="magnify" viewBox="0 0 91.5 74.999997" height="100" preserveAspectRatio="xMidYMid meet" version="1.0"><defs><g/><clipPath id="a9953165c1"><path d="M 0 0.203125 L 90.910156 0.203125 L 90.910156 74.796875 L 0 74.796875 Z M 0 0.203125 " clip-rule="nonzero"/></clipPath><clipPath id="4d71809cbc"><path d="M 61.28125 0.203125 L 29.621094 0.203125 C 13.261719 0.203125 0 13.15625 0 29.136719 C 0 40.707031 6.953125 50.683594 16.996094 55.3125 L 16.996094 74.796875 L 37.113281 58.070312 L 61.28125 58.070312 C 77.742188 58.070312 91.003906 45.117188 91.003906 29.136719 C 91.003906 13.15625 77.742188 0.203125 61.28125 0.203125 Z M 61.28125 0.203125 " clip-rule="nonzero"/></clipPath><linearGradient x1="0.00375366" gradientTransform="matrix(0.291377, 0, 0, 0.291377, -0.00109373, 0.203802)" y1="128" x2="312.003745" gradientUnits="userSpaceOnUse" y2="128" id="947665d71a"><stop stop-opacity="1" stop-color="rgb(54.899597%, 32.199097%, 99.998474%)" offset="0"/><stop stop-opacity="1" stop-color="rgb(54.898071%, 32.327271%, 99.957275%)" offset="0.0078125"/><stop stop-opacity="1" stop-color="rgb(54.89502%, 32.585144%, 99.874878%)" offset="0.015625"/><stop stop-opacity="1" stop-color="rgb(54.891968%, 32.841492%, 99.79248%)" offset="0.0234375"/><stop stop-opacity="1" stop-color="rgb(54.888916%, 33.097839%, 99.710083%)" offset="0.03125"/><stop stop-opacity="1" stop-color="rgb(54.885864%, 33.354187%, 99.62616%)" offset="0.0390625"/><stop stop-opacity="1" stop-color="rgb(54.881287%, 33.612061%, 99.543762%)" offset="0.046875"/><stop stop-opacity="1" stop-color="rgb(54.878235%, 33.868408%, 99.461365%)" offset="0.0546875"/><stop stop-opacity="1" stop-color="rgb(54.875183%, 34.124756%, 99.378967%)" offset="0.0625"/><stop stop-opacity="1" stop-color="rgb(54.872131%, 34.382629%, 99.295044%)" offset="0.0703125"/><stop stop-opacity="1" stop-color="rgb(54.86908%, 34.638977%, 99.212646%)" offset="0.078125"/><stop stop-opacity="1" stop-color="rgb(54.866028%, 34.895325%, 99.130249%)" offset="0.0859375"/><stop stop-opacity="1" stop-color="rgb(54.862976%, 35.151672%, 99.047852%)" offset="0.09375"/><stop stop-opacity="1" stop-color="rgb(54.859924%, 35.409546%, 98.965454%)" offset="0.101562"/><stop stop-opacity="1" stop-color="rgb(54.856873%, 35.665894%, 98.881531%)" offset="0.109375"/><stop stop-opacity="1" stop-color="rgb(54.853821%, 35.922241%, 98.799133%)" offset="0.117187"/><stop stop-opacity="1" stop-color="rgb(54.850769%, 36.178589%, 98.716736%)" offset="0.125"/><stop stop-opacity="1" stop-color="rgb(54.847717%, 36.436462%, 98.634338%)" offset="0.132812"/><stop stop-opacity="1" stop-color="rgb(54.844666%, 36.69281%, 98.551941%)" offset="0.140625"/><stop stop-opacity="1" stop-color="rgb(54.841614%, 36.949158%, 98.468018%)" offset="0.148438"/><stop stop-opacity="1" stop-color="rgb(54.838562%, 37.207031%, 98.38562%)" offset="0.15625"/><stop stop-opacity="1" stop-color="rgb(54.83551%, 37.463379%, 98.303223%)" offset="0.164062"/><stop stop-opacity="1" stop-color="rgb(54.832458%, 37.719727%, 98.220825%)" offset="0.171875"/><stop stop-opacity="1" stop-color="rgb(54.829407%, 37.976074%, 98.136902%)" offset="0.179687"/><stop stop-opacity="1" stop-color="rgb(54.826355%, 38.233948%, 98.054504%)" offset="0.1875"/><stop stop-opacity="1" stop-color="rgb(54.823303%, 38.490295%, 97.972107%)" offset="0.195312"/><stop stop-opacity="1" stop-color="rgb(54.820251%, 38.746643%, 97.889709%)" offset="0.203125"/><stop stop-opacity="1" stop-color="rgb(54.8172%, 39.004517%, 97.807312%)" offset="0.210938"/><stop stop-opacity="1" stop-color="rgb(54.812622%, 39.260864%, 97.723389%)" offset="0.21875"/><stop stop-opacity="1" stop-color="rgb(54.80957%, 39.517212%, 97.640991%)" offset="0.226562"/><stop stop-opacity="1" stop-color="rgb(54.806519%, 39.77356%, 97.558594%)" offset="0.234375"/><stop stop-opacity="1" stop-color="rgb(54.803467%, 40.031433%, 97.476196%)" offset="0.242188"/><stop stop-opacity="1" stop-color="rgb(54.800415%, 40.287781%, 97.392273%)" offset="0.25"/><stop stop-opacity="1" stop-color="rgb(54.797363%, 40.544128%, 97.309875%)" offset="0.257812"/><stop stop-opacity="1" stop-color="rgb(54.794312%, 40.800476%, 97.227478%)" offset="0.265625"/><stop stop-opacity="1" stop-color="rgb(54.79126%, 41.05835%, 97.145081%)" offset="0.273437"/><stop stop-opacity="1" stop-color="rgb(54.788208%, 41.314697%, 97.062683%)" offset="0.28125"/><stop stop-opacity="1" stop-color="rgb(54.785156%, 41.571045%, 96.97876%)" offset="0.289062"/><stop stop-opacity="1" stop-color="rgb(54.782104%, 41.828918%, 96.896362%)" offset="0.296875"/><stop stop-opacity="1" stop-color="rgb(54.779053%, 42.085266%, 96.813965%)" offset="0.304687"/><stop stop-opacity="1" stop-color="rgb(54.776001%, 42.341614%, 96.731567%)" offset="0.3125"/><stop stop-opacity="1" stop-color="rgb(54.772949%, 42.597961%, 96.64917%)" offset="0.320312"/><stop stop-opacity="1" stop-color="rgb(54.769897%, 42.855835%, 96.565247%)" offset="0.328125"/><stop stop-opacity="1" stop-color="rgb(54.766846%, 43.112183%, 96.482849%)" offset="0.335938"/><stop stop-opacity="1" stop-color="rgb(54.763794%, 43.36853%, 96.400452%)" offset="0.34375"/><stop stop-opacity="1" stop-color="rgb(54.760742%, 43.624878%, 96.318054%)" offset="0.351562"/><stop stop-opacity="1" stop-color="rgb(54.75769%, 43.882751%, 96.234131%)" offset="0.359375"/><stop stop-opacity="1" stop-color="rgb(54.754639%, 44.139099%, 96.151733%)" offset="0.367187"/><stop stop-opacity="1" stop-color="rgb(54.751587%, 44.395447%, 96.069336%)" offset="0.375"/><stop stop-opacity="1" stop-color="rgb(54.748535%, 44.65332%, 95.986938%)" offset="0.382812"/><stop stop-opacity="1" stop-color="rgb(54.743958%, 44.909668%, 95.904541%)" offset="0.390625"/><stop stop-opacity="1" stop-color="rgb(54.740906%, 45.166016%, 95.820618%)" offset="0.398437"/><stop stop-opacity="1" stop-color="rgb(54.737854%, 45.422363%, 95.73822%)" offset="0.40625"/><stop stop-opacity="1" stop-color="rgb(54.734802%, 45.680237%, 95.655823%)" offset="0.414062"/><stop stop-opacity="1" stop-color="rgb(54.73175%, 45.936584%, 95.573425%)" offset="0.421875"/><stop stop-opacity="1" stop-color="rgb(54.728699%, 46.192932%, 95.491028%)" offset="0.429688"/><stop stop-opacity="1" stop-color="rgb(54.725647%, 46.44928%, 95.407104%)" offset="0.4375"/><stop stop-opacity="1" stop-color="rgb(54.722595%, 46.707153%, 95.324707%)" offset="0.445312"/><stop stop-opacity="1" stop-color="rgb(54.719543%, 46.963501%, 95.24231%)" offset="0.453125"/><stop stop-opacity="1" stop-color="rgb(54.716492%, 47.219849%, 95.159912%)" offset="0.460937"/><stop stop-opacity="1" stop-color="rgb(54.71344%, 47.477722%, 95.075989%)" offset="0.46875"/><stop stop-opacity="1" stop-color="rgb(54.710388%, 47.73407%, 94.993591%)" offset="0.476562"/><stop stop-opacity="1" stop-color="rgb(54.707336%, 47.990417%, 94.911194%)" offset="0.484375"/><stop stop-opacity="1" stop-color="rgb(54.704285%, 48.246765%, 94.828796%)" offset="0.492187"/><stop stop-opacity="1" stop-color="rgb(54.701233%, 48.504639%, 94.746399%)" offset="0.5"/><stop stop-opacity="1" stop-color="rgb(54.698181%, 48.760986%, 94.662476%)" offset="0.507812"/><stop stop-opacity="1" stop-color="rgb(54.695129%, 49.017334%, 94.580078%)" offset="0.515625"/><stop stop-opacity="1" stop-color="rgb(54.692078%, 49.275208%, 94.497681%)" offset="0.523438"/><stop stop-opacity="1" stop-color="rgb(54.689026%, 49.531555%, 94.415283%)" offset="0.53125"/><stop stop-opacity="1" stop-color="rgb(54.685974%, 49.787903%, 94.33136%)" offset="0.539062"/><stop stop-opacity="1" stop-color="rgb(54.682922%, 50.04425%, 94.248962%)" offset="0.546875"/><stop stop-opacity="1" stop-color="rgb(54.679871%, 50.302124%, 94.166565%)" offset="0.554688"/><stop stop-opacity="1" stop-color="rgb(54.675293%, 50.558472%, 94.084167%)" offset="0.5625"/><stop stop-opacity="1" stop-color="rgb(54.672241%, 50.814819%, 94.00177%)" offset="0.570312"/><stop stop-opacity="1" stop-color="rgb(54.669189%, 51.071167%, 93.917847%)" offset="0.578125"/><stop stop-opacity="1" stop-color="rgb(54.666138%, 51.329041%, 93.835449%)" offset="0.585938"/><stop stop-opacity="1" stop-color="rgb(54.663086%, 51.585388%, 93.753052%)" offset="0.59375"/><stop stop-opacity="1" stop-color="rgb(54.660034%, 51.841736%, 93.670654%)" offset="0.601562"/><stop stop-opacity="1" stop-color="rgb(54.656982%, 52.099609%, 93.588257%)" offset="0.609375"/><stop stop-opacity="1" stop-color="rgb(54.653931%, 52.355957%, 93.504333%)" offset="0.617187"/><stop stop-opacity="1" stop-color="rgb(54.650879%, 52.612305%, 93.421936%)" offset="0.625"/><stop stop-opacity="1" stop-color="rgb(54.647827%, 52.868652%, 93.339539%)" offset="0.632813"/><stop stop-opacity="1" stop-color="rgb(54.644775%, 53.126526%, 93.257141%)" offset="0.640625"/><stop stop-opacity="1" stop-color="rgb(54.641724%, 53.382874%, 93.173218%)" offset="0.648438"/><stop stop-opacity="1" stop-color="rgb(54.638672%, 53.639221%, 93.09082%)" offset="0.65625"/><stop stop-opacity="1" stop-color="rgb(54.63562%, 53.895569%, 93.008423%)" offset="0.664063"/><stop stop-opacity="1" stop-color="rgb(54.632568%, 54.153442%, 92.926025%)" offset="0.671875"/><stop stop-opacity="1" stop-color="rgb(54.629517%, 54.40979%, 92.843628%)" offset="0.679688"/><stop stop-opacity="1" stop-color="rgb(54.626465%, 54.666138%, 92.759705%)" offset="0.6875"/><stop stop-opacity="1" stop-color="rgb(54.623413%, 54.924011%, 92.677307%)" offset="0.695312"/><stop stop-opacity="1" stop-color="rgb(54.620361%, 55.180359%, 92.59491%)" offset="0.703125"/><stop stop-opacity="1" stop-color="rgb(54.61731%, 55.436707%, 92.512512%)" offset="0.710938"/><stop stop-opacity="1" stop-color="rgb(54.614258%, 55.693054%, 92.430115%)" offset="0.71875"/><stop stop-opacity="1" stop-color="rgb(54.60968%, 55.950928%, 92.346191%)" offset="0.726562"/><stop stop-opacity="1" stop-color="rgb(54.606628%, 56.207275%, 92.263794%)" offset="0.734375"/><stop stop-opacity="1" stop-color="rgb(54.603577%, 56.463623%, 92.181396%)" offset="0.742188"/><stop stop-opacity="1" stop-color="rgb(54.600525%, 56.721497%, 92.098999%)" offset="0.75"/><stop stop-opacity="1" stop-color="rgb(54.597473%, 56.977844%, 92.015076%)" offset="0.757812"/><stop stop-opacity="1" stop-color="rgb(54.594421%, 57.234192%, 91.932678%)" offset="0.765625"/><stop stop-opacity="1" stop-color="rgb(54.59137%, 57.49054%, 91.850281%)" offset="0.773437"/><stop stop-opacity="1" stop-color="rgb(54.588318%, 57.748413%, 91.767883%)" offset="0.78125"/><stop stop-opacity="1" stop-color="rgb(54.585266%, 58.004761%, 91.685486%)" offset="0.789062"/><stop stop-opacity="1" stop-color="rgb(54.582214%, 58.261108%, 91.601562%)" offset="0.796875"/><stop stop-opacity="1" stop-color="rgb(54.579163%, 58.517456%, 91.519165%)" offset="0.804687"/><stop stop-opacity="1" stop-color="rgb(54.576111%, 58.77533%, 91.436768%)" offset="0.8125"/><stop stop-opacity="1" stop-color="rgb(54.573059%, 59.031677%, 91.35437%)" offset="0.820313"/><stop stop-opacity="1" stop-color="rgb(54.570007%, 59.288025%, 91.270447%)" offset="0.828125"/><stop stop-opacity="1" stop-color="rgb(54.566956%, 59.545898%, 91.188049%)" offset="0.835938"/><stop stop-opacity="1" stop-color="rgb(54.563904%, 59.802246%, 91.105652%)" offset="0.84375"/><stop stop-opacity="1" stop-color="rgb(54.560852%, 60.058594%, 91.023254%)" offset="0.851563"/><stop stop-opacity="1" stop-color="rgb(54.5578%, 60.314941%, 90.940857%)" offset="0.859375"/><stop stop-opacity="1" stop-color="rgb(54.554749%, 60.572815%, 90.856934%)" offset="0.867188"/><stop stop-opacity="1" stop-color="rgb(54.551697%, 60.829163%, 90.774536%)" offset="0.875"/><stop stop-opacity="1" stop-color="rgb(54.548645%, 61.08551%, 90.692139%)" offset="0.882812"/><stop stop-opacity="1" stop-color="rgb(54.545593%, 61.341858%, 90.609741%)" offset="0.890625"/><stop stop-opacity="1" stop-color="rgb(54.541016%, 61.599731%, 90.527344%)" offset="0.898438"/><stop stop-opacity="1" stop-color="rgb(54.537964%, 61.856079%, 90.44342%)" offset="0.90625"/><stop stop-opacity="1" stop-color="rgb(54.534912%, 62.112427%, 90.361023%)" offset="0.914062"/><stop stop-opacity="1" stop-color="rgb(54.53186%, 62.3703%, 90.278625%)" offset="0.921875"/><stop stop-opacity="1" stop-color="rgb(54.528809%, 62.626648%, 90.196228%)" offset="0.929688"/><stop stop-opacity="1" stop-color="rgb(54.525757%, 62.882996%, 90.112305%)" offset="0.9375"/><stop stop-opacity="1" stop-color="rgb(54.522705%, 63.139343%, 90.029907%)" offset="0.945312"/><stop stop-opacity="1" stop-color="rgb(54.519653%, 63.397217%, 89.94751%)" offset="0.953125"/><stop stop-opacity="1" stop-color="rgb(54.516602%, 63.653564%, 89.865112%)" offset="0.960937"/><stop stop-opacity="1" stop-color="rgb(54.51355%, 63.909912%, 89.782715%)" offset="0.96875"/><stop stop-opacity="1" stop-color="rgb(54.510498%, 64.167786%, 89.698792%)" offset="0.976562"/><stop stop-opacity="1" stop-color="rgb(54.507446%, 64.424133%, 89.616394%)" offset="0.984375"/><stop stop-opacity="1" stop-color="rgb(54.504395%, 64.680481%, 89.533997%)" offset="0.992187"/><stop stop-opacity="1" stop-color="rgb(54.501343%, 64.936829%, 89.451599%)" offset="1"/></linearGradient></defs><g clip-path="url(#a9953165c1)"><g clip-path="url(#4d71809cbc)"><path fill="url(#947665d71a)" d="M 0 0.203125 L 0 74.796875 L 90.910156 74.796875 L 90.910156 0.203125 Z M 0 0.203125 " fill-rule="nonzero"/></g></g><g fill="#ffffff" fill-opacity="1"><g transform="translate(22.98378, 36.754072)"><g><path d="M 13.734375 -4.875 L 12.703125 -2.046875 C 12.171875 -0.597656 11.269531 0.125 10 0.125 C 9.351562 0.125 8.8125 -0.046875 8.375 -0.390625 C 7.945312 -0.734375 7.597656 -1.28125 7.328125 -2.03125 L 6.28125 -4.875 L 5.84375 -2.34375 C 5.71875 -1.570312 5.421875 -0.96875 4.953125 -0.53125 C 4.484375 -0.09375 3.90625 0.125 3.21875 0.125 C 2.4375 0.125 1.800781 -0.140625 1.3125 -0.671875 C 0.820312 -1.210938 0.578125 -1.90625 0.578125 -2.75 C 0.578125 -2.851562 0.578125 -2.957031 0.578125 -3.0625 C 0.585938 -3.164062 0.601562 -3.273438 0.625 -3.390625 L 2.4375 -13.578125 C 2.5625 -14.347656 2.847656 -14.953125 3.296875 -15.390625 C 3.753906 -15.828125 4.328125 -16.046875 5.015625 -16.046875 C 5.566406 -16.046875 6.085938 -15.882812 6.578125 -15.5625 C 7.066406 -15.25 7.421875 -14.820312 7.640625 -14.28125 L 10 -9 L 12.65625 -14.640625 C 12.863281 -15.046875 13.175781 -15.378906 13.59375 -15.640625 C 14.019531 -15.910156 14.476562 -16.046875 14.96875 -16.046875 C 15.289062 -16.046875 15.617188 -15.976562 15.953125 -15.84375 C 16.285156 -15.71875 16.5625 -15.546875 16.78125 -15.328125 C 17.007812 -15.109375 17.179688 -14.867188 17.296875 -14.609375 C 17.410156 -14.359375 17.507812 -14.015625 17.59375 -13.578125 L 19.40625 -3.3125 C 19.4375 -3.144531 19.457031 -2.988281 19.46875 -2.84375 C 19.488281 -2.695312 19.5 -2.5625 19.5 -2.4375 C 19.5 -2.070312 19.429688 -1.734375 19.296875 -1.421875 C 19.160156 -1.109375 18.976562 -0.835938 18.75 -0.609375 C 18.519531 -0.390625 18.242188 -0.210938 17.921875 -0.078125 C 17.609375 0.0546875 17.273438 0.125 16.921875 0.125 C 16.253906 0.125 15.679688 -0.0546875 15.203125 -0.421875 C 14.722656 -0.796875 14.429688 -1.285156 14.328125 -1.890625 Z M 13.734375 -4.875 "/></g></g></g><g fill="#ffffff" fill-opacity="1"><g transform="translate(43.058119, 36.754072)"><g><path d="M 4.84375 0 C 4.238281 0 3.804688 -0.015625 3.546875 -0.046875 C 3.296875 -0.078125 3.0625 -0.132812 2.84375 -0.21875 C 2 -0.5625 1.5 -1.195312 1.34375 -2.125 C 1.320312 -2.207031 1.300781 -2.28125 1.28125 -2.34375 C 1.269531 -2.414062 1.257812 -2.507812 1.25 -2.625 C 1.238281 -2.738281 1.234375 -2.878906 1.234375 -3.046875 C 1.234375 -3.210938 1.234375 -3.429688 1.234375 -3.703125 L 1.234375 -12.34375 C 1.234375 -12.675781 1.238281 -12.945312 1.25 -13.15625 C 1.257812 -13.363281 1.269531 -13.535156 1.28125 -13.671875 C 1.300781 -13.804688 1.328125 -13.921875 1.359375 -14.015625 C 1.390625 -14.109375 1.429688 -14.21875 1.484375 -14.34375 C 1.585938 -14.644531 1.753906 -14.90625 1.984375 -15.125 C 2.222656 -15.351562 2.476562 -15.53125 2.75 -15.65625 C 2.882812 -15.71875 3.007812 -15.765625 3.125 -15.796875 C 3.238281 -15.835938 3.367188 -15.863281 3.515625 -15.875 C 3.671875 -15.894531 3.863281 -15.90625 4.09375 -15.90625 C 4.320312 -15.914062 4.628906 -15.921875 5.015625 -15.921875 L 8.171875 -15.921875 C 8.546875 -15.921875 8.84375 -15.921875 9.0625 -15.921875 C 9.289062 -15.921875 9.46875 -15.910156 9.59375 -15.890625 C 9.71875 -15.878906 9.820312 -15.863281 9.90625 -15.84375 C 9.988281 -15.832031 10.078125 -15.820312 10.171875 -15.8125 C 10.722656 -15.664062 11.160156 -15.382812 11.484375 -14.96875 C 11.816406 -14.550781 11.984375 -14.066406 11.984375 -13.515625 C 11.984375 -13.128906 11.90625 -12.765625 11.75 -12.421875 C 11.601562 -12.078125 11.394531 -11.796875 11.125 -11.578125 C 10.882812 -11.367188 10.613281 -11.21875 10.3125 -11.125 C 10.007812 -11.039062 9.613281 -11 9.125 -11 L 6.5 -11 L 6.5 -9.90625 L 8.578125 -9.90625 C 9.222656 -9.90625 9.738281 -9.726562 10.125 -9.375 C 10.507812 -9.03125 10.703125 -8.578125 10.703125 -8.015625 C 10.703125 -7.398438 10.46875 -6.898438 10 -6.515625 C 9.789062 -6.359375 9.570312 -6.25 9.34375 -6.1875 C 9.113281 -6.132812 8.789062 -6.109375 8.375 -6.109375 L 6.5 -6.109375 L 6.5 -4.921875 L 8.90625 -4.921875 C 9.476562 -4.921875 9.921875 -4.875 10.234375 -4.78125 C 10.546875 -4.695312 10.835938 -4.546875 11.109375 -4.328125 C 11.679688 -3.828125 11.96875 -3.203125 11.96875 -2.453125 C 11.96875 -2.085938 11.890625 -1.734375 11.734375 -1.390625 C 11.578125 -1.054688 11.367188 -0.773438 11.109375 -0.546875 C 10.972656 -0.429688 10.835938 -0.335938 10.703125 -0.265625 C 10.566406 -0.203125 10.421875 -0.148438 10.265625 -0.109375 C 10.109375 -0.0664062 9.921875 -0.0351562 9.703125 -0.015625 C 9.492188 -0.00390625 9.234375 0 8.921875 0 Z M 4.84375 0 "/></g></g></g><g fill="#ffffff" fill-opacity="1"><g transform="translate(55.613533, 36.754072)"><g><path d="M 6.25 -9.90625 C 6.550781 -10.019531 6.703125 -10.226562 6.703125 -10.53125 C 6.703125 -10.707031 6.632812 -10.859375 6.5 -10.984375 C 6.363281 -11.109375 6.210938 -11.171875 6.046875 -11.171875 C 5.816406 -11.171875 5.59375 -11.03125 5.375 -10.75 C 5.050781 -10.28125 4.726562 -9.953125 4.40625 -9.765625 C 4.09375 -9.578125 3.691406 -9.484375 3.203125 -9.484375 C 2.847656 -9.484375 2.515625 -9.550781 2.203125 -9.6875 C 1.898438 -9.820312 1.628906 -10 1.390625 -10.21875 C 1.160156 -10.4375 0.976562 -10.703125 0.84375 -11.015625 C 0.707031 -11.328125 0.640625 -11.648438 0.640625 -11.984375 C 0.640625 -12.554688 0.785156 -13.097656 1.078125 -13.609375 C 1.378906 -14.128906 1.78125 -14.585938 2.28125 -14.984375 C 2.78125 -15.390625 3.351562 -15.710938 4 -15.953125 C 4.65625 -16.191406 5.34375 -16.3125 6.0625 -16.3125 C 6.875 -16.3125 7.625 -16.160156 8.3125 -15.859375 C 9.007812 -15.566406 9.613281 -15.160156 10.125 -14.640625 C 10.644531 -14.128906 11.046875 -13.519531 11.328125 -12.8125 C 11.617188 -12.113281 11.765625 -11.351562 11.765625 -10.53125 C 11.765625 -8.988281 11.257812 -7.710938 10.25 -6.703125 C 9.75 -6.210938 9.179688 -5.832031 8.546875 -5.5625 C 7.921875 -5.289062 7.285156 -5.15625 6.640625 -5.15625 C 4.867188 -5.15625 3.9375 -5.941406 3.84375 -7.515625 C 3.820312 -7.710938 3.84375 -7.910156 3.90625 -8.109375 C 3.976562 -8.304688 4.066406 -8.492188 4.171875 -8.671875 C 4.285156 -8.859375 4.414062 -9.019531 4.5625 -9.15625 C 4.71875 -9.289062 4.882812 -9.390625 5.0625 -9.453125 Z M 3.71875 -2.40625 C 3.71875 -2.738281 3.78125 -3.050781 3.90625 -3.34375 C 4.039062 -3.644531 4.222656 -3.90625 4.453125 -4.125 C 4.679688 -4.351562 4.945312 -4.53125 5.25 -4.65625 C 5.550781 -4.78125 5.867188 -4.84375 6.203125 -4.84375 C 6.535156 -4.84375 6.851562 -4.78125 7.15625 -4.65625 C 7.457031 -4.53125 7.722656 -4.347656 7.953125 -4.109375 C 8.191406 -3.878906 8.375 -3.617188 8.5 -3.328125 C 8.625 -3.035156 8.6875 -2.722656 8.6875 -2.390625 C 8.6875 -2.035156 8.625 -1.707031 8.5 -1.40625 C 8.375 -1.101562 8.191406 -0.835938 7.953125 -0.609375 C 7.722656 -0.378906 7.457031 -0.195312 7.15625 -0.0625 C 6.851562 0.0625 6.535156 0.125 6.203125 0.125 C 5.492188 0.125 4.898438 -0.117188 4.421875 -0.609375 C 3.953125 -1.097656 3.71875 -1.695312 3.71875 -2.40625 Z M 3.71875 -2.40625 "/></g></g></g></svg>